# xmcd
# 
# Track frame offsets:
#     150
#     12995
#     21519
#     36795
#     49599
#     71608
#     87311
#     104372
#     118261
#     127283
#     133646
#     151350
#     160408
# 
# Disc length: 2359
# 
# Revision: 0
# Processed by: cddbd v1.5.2PL0 Copyright (c) Steve Scherf et al.
# Submitted via: fre:ac v1.0.17
# 
DISCID=b709350d
DTITLE=John Renbourn - So Clear
DYEAR=1973
DGENRE=
TTITLE0=lady Goes To Church
TTITLE1=Another Monday
TTITLE2=Shake Shake Mamma
TTITLE3=Branlse Gay/ Bransle de Bourgogne
TTITLE4=So Clear
TTITLE5=The Lady and the Unicorn
TTITLE6=Plainsong
TTITLE7=Blues Run The Game
TTITLE8=Waltz
TTITLE9=Westron Wynde
TTITLE10=The Cuckoo
TTITLE11=Transition
TTITLE12=Country Blues
EXTD=Transatlantic\n\nfrom vinyl\n
EXTT0=
EXTT1=
EXTT2=
EXTT3=
EXTT4=
EXTT5=
EXTT6=
EXTT7=
EXTT8=
EXTT9=
EXTT10=
EXTT11=
EXTT12=
PLAYORDER=
